<?xml version="1.0" encoding="UTF-8"?>
<svg xmlns="http://www.w3.org/2000/svg" id="Layer_1" data-name="Layer 1" viewBox="0 0 24 24">
  <path d="M24,19.5c0,.276-.224,.5-.5,.5h-5c-.276,0-.5-.224-.5-.5s.224-.5,.5-.5h5c.276,0,.5,.224,.5,.5ZM8,9c.552,0,1-.448,1-1s-.448-1-1-1-1,.448-1,1,.448,1,1,1Zm-4,0c.552,0,1-.448,1-1s-.448-1-1-1-1,.448-1,1,.448,1,1,1Zm12,9.5v2c0,.827-.673,1.5-1.5,1.5s-1.5-.673-1.5-1.5v-.5H.5c-.276,0-.5-.224-.5-.5s.224-.5,.5-.5H13v-.5c0-.827,.673-1.5,1.5-1.5s1.5,.673,1.5,1.5Zm-1,0c0-.275-.225-.5-.5-.5s-.5,.225-.5,.5v2c0,.275,.225,.5,.5,.5s.5-.225,.5-.5v-2ZM0,9C0,5.691,2.691,3,6,3s6,2.691,6,6-2.691,6-6,6S0,12.309,0,9Zm1,0c0,2.757,2.243,5,5,5s5-2.243,5-5-2.243-5-5-5S1,6.243,1,9Zm19,0c.552,0,1-.448,1-1s-.448-1-1-1-1,.448-1,1,.448,1,1,1Zm-4,0c.552,0,1-.448,1-1s-.448-1-1-1-1,.448-1,1,.448,1,1,1Zm-4,0c0-3.309,2.691-6,6-6s6,2.691,6,6-2.691,6-6,6-6-2.691-6-6Zm1,0c0,2.757,2.243,5,5,5s5-2.243,5-5-2.243-5-5-5-5,2.243-5,5Zm2.646,1.318c-.195,.195-.195,.512,0,.707,.648,.648,1.501,.974,2.354,.974s1.705-.325,2.354-.974c.195-.195,.195-.512,0-.707s-.512-.195-.707,0c-.908,.908-2.385,.908-3.293,0-.195-.195-.512-.195-.707,0Zm-12,1.363c.195,.195,.512,.195,.707,0,.88-.879,2.413-.879,3.293,0,.195,.195,.512,.195,.707,0s.195-.512,0-.707c-1.258-1.258-3.449-1.258-4.707,0-.195,.195-.195,.512,0,.707Z"/>
</svg>
