<?xml version="1.0" encoding="UTF-8"?>
<svg xmlns="http://www.w3.org/2000/svg" id="Layer_1" data-name="Layer 1" viewBox="0 0 24 24">
  <path d="m7.5,13c2.481,0,4.5-2.019,4.5-4.5s-2.019-4.5-4.5-4.5-4.5,2.019-4.5,4.5,2.019,4.5,4.5,4.5Zm0-8c1.93,0,3.5,1.57,3.5,3.5s-1.57,3.5-3.5,3.5-3.5-1.57-3.5-3.5,1.57-3.5,3.5-3.5Zm7.5,17.5v1c0,.276-.224.5-.5.5s-.5-.224-.5-.5v-1c0-3.584-2.916-6.5-6.5-6.5s-6.5,2.916-6.5,6.5v1c0,.276-.224.5-.5.5s-.5-.224-.5-.5v-1c0-4.136,3.364-7.5,7.5-7.5s7.5,3.364,7.5,7.5Zm9-4.637v.637c0,.276-.224.5-.5.5s-.5-.224-.5-.5v-.637c0-3.233-2.63-5.863-5.863-5.863-1.357,0-2.485.307-3.351.91-.228.158-.539.103-.696-.124s-.103-.538.124-.696c1.037-.724,2.357-1.09,3.923-1.09,3.784,0,6.863,3.079,6.863,6.863Zm-6.5-8.863c2.481,0,4.5-2.019,4.5-4.5S19.981,0,17.5,0s-4.5,2.019-4.5,4.5,2.019,4.5,4.5,4.5Zm0-8c1.93,0,3.5,1.57,3.5,3.5s-1.57,3.5-3.5,3.5-3.5-1.57-3.5-3.5,1.57-3.5,3.5-3.5Z"/>
</svg>
